<svg xmlns="http://www.w3.org/2000/svg" viewBox="0 0 1200 800" role="img" aria-label="Stockfoto placeholder: mondhygiënist">
  <defs>
    <linearGradient id="bg" x1="0" y1="0" x2="1" y2="1">
      <stop offset="0" stop-color="#0f1a31"/>
      <stop offset="1" stop-color="#1c2a52"/>
    </linearGradient>
    <linearGradient id="g" x1="0" y1="0" x2="1" y2="1">
      <stop offset="0" stop-color="#7aa7ff"/>
      <stop offset="1" stop-color="#55d6c2"/>
    </linearGradient>
  </defs>
  <rect width="1200" height="800" fill="url(#bg)"/>

  <g opacity="0.28" fill="url(#g)">
    <rect x="90" y="120" width="360" height="500" rx="26"/>
    <rect x="520" y="180" width="610" height="110" rx="22"/>
    <rect x="520" y="320" width="520" height="90" rx="22"/>
    <rect x="520" y="440" width="580" height="90" rx="22"/>
  </g>

  <g fill="#e9eefc" opacity="0.92">
    <path d="M285 240c-60 0-108 48-108 108 0 59 48 107 108 107 59 0 107-48 107-107 0-60-48-108-107-108zm0 250c-78 0-142 40-142 90v40h284v-40c0-50-64-90-142-90z"/>
  </g>

  <text x="60" y="730" fill="#b9c5e6" font-family="ui-sans-serif,system-ui" font-size="28">Vervang met echte foto + update credits</text>
</svg>
