<svg xmlns="http://www.w3.org/2000/svg" viewBox="0 0 1200 800" role="img" aria-label="Stockfoto placeholder: mondzorg">
  <defs>
    <linearGradient id="bg" x1="0" y1="0" x2="1" y2="1">
      <stop offset="0" stop-color="#1c2a52"/>
      <stop offset="1" stop-color="#0f1a31"/>
    </linearGradient>
    <linearGradient id="g" x1="0" y1="0" x2="1" y2="1">
      <stop offset="0" stop-color="#55d6c2"/>
      <stop offset="1" stop-color="#7aa7ff"/>
    </linearGradient>
  </defs>
  <rect width="1200" height="800" fill="url(#bg)"/>
  <circle cx="260" cy="260" r="170" fill="url(#g)" opacity="0.25"/>
  <circle cx="980" cy="180" r="220" fill="url(#g)" opacity="0.18"/>
  <circle cx="920" cy="640" r="260" fill="url(#g)" opacity="0.14"/>

  <g fill="#e9eefc" opacity="0.9">
    <path d="M600 210c-90 0-150 70-150 170 0 65 28 120 70 150 20 14 30 35 30 60v20h100v-20c0-25 10-46 30-60 42-30 70-85 70-150 0-100-60-170-150-170zm-60 210c-18 0-32-15-32-34 0-18 14-33 32-33 17 0 31 15 31 33 0 19-14 34-31 34zm120 0c-17 0-31-15-31-34 0-18 14-33 31-33 18 0 32 15 32 33 0 19-14 34-32 34z"/>
  </g>

  <text x="60" y="730" fill="#b9c5e6" font-family="ui-sans-serif,system-ui" font-size="28">Plaats hier een echte stockfoto (bijv. Unsplash)</text>
</svg>
